<?xml version="1.0" standalone="no"?>
<svg xmlns="http://www.w3.org/2000/svg" viewBox="0 0 185.983 29.266" width="185.983" height="29.266"><g fill="#BC8CF2" color="#BC8CF2" transform="translate(0, 0) scale(0.5686275)"><svg width="50.0" height="51.0" x="0.0" y="0.0" viewBox="0 0 50 51"><path fill="currentColor" fill-rule="evenodd" d="M48.937 15.444c-.196-.645-2.207-.937-5.433-.556a7.257 7.257 0 0 1 1.218 4.028c2.897-1.469 4.41-2.828 4.215-3.472m-18.63 5.633a7.19 7.19 0 0 1-.318-2.102c-2.862 1.437-4.416 2.808-4.215 3.472.202.665 2.207.937 5.433.556a7.155 7.155 0 0 1-.9-1.926m19.637-5.938c.454 1.501-1.901 3.346-5.323 4.973a7.364 7.364 0 0 1-12.668 3.83c-3.75.54-6.732.31-7.186-1.19-.453-1.5 1.901-3.345 5.323-4.972a7.363 7.363 0 0 1 12.668-3.831c3.75-.54 6.732-.31 7.186 1.19m-21.016 22.05a8.418 8.418 0 0 0-13.14-.6c1.38.242 2.714.698 3.956 1.347 2.493 1.273 5.996.526 9.184-.747M22.1 50.509a8.416 8.416 0 0 0 7.586-4.777c-3.767-.053-9.29 1.536-12.972 2.83a8.417 8.417 0 0 0 5.386 1.946m7.365-12.415a18.561 18.561 0 0 1-6.712 1.547 7.881 7.881 0 0 1-3.514-.705 11.571 11.571 0 0 0-4.209-1.326 8.351 8.351 0 0 0-1.347 4.482h4.735a.526.526 0 1 1 0 1.053h-4.66a8.418 8.418 0 0 0 2.103 4.597c3.157-1.136 9.764-3.25 14.225-3.04.284-.841.429-1.722.431-2.61a8.416 8.416 0 0 0-1.052-3.998M10.054.513l2.104 4.366a.906.906 0 0 0 .684.494l4.818.705a.905.905 0 0 1 .505 1.536l-3.43 3.399a.905.905 0 0 0-.262.8l.83 4.807a.904.904 0 0 1-1.314.947l-4.314-2.272a.915.915 0 0 0-.842 0L4.52 17.567a.894.894 0 0 1-1.357-.947l.82-4.808a.905.905 0 0 0-.252-.8L.28 7.615a.895.895 0 0 1 .494-1.536l4.83-.705a.86.86 0 0 0 .715-.494L8.423.513a.905.905 0 0 1 1.63 0"></path></svg></g><line x1="40.432" y1="1" x2="40.432" y2="28" stroke="#eff0f2" stroke-linecap="round"></line><path fill="#eff0f2" fill-rule="nonzero" d="M12.14 17.61L10.38 13.54L3.23 13.54Q3.06 14.16 2.96 14.78Q2.87 15.41 2.87 16.03L2.87 16.03Q2.87 16.46 2.92 16.88Q2.96 17.29 3.07 17.66L3.07 17.66L1.24 18.16Q0.96 18.23 0.71 18.23L0.71 18.23Q0 18.23 0 17.54L0 17.54Q0 17.48 0.01 17.45Q0.02 17.41 0.02 17.36L0.02 17.36Q0.13 16.48 0.46 15.32Q0.80 14.17 1.28 12.88Q1.76 11.59 2.33 10.24Q2.91 8.89 3.49 7.62Q4.08 6.35 4.63 5.23Q5.18 4.10 5.61 3.26Q6.04 2.41 6.29 1.93Q6.55 1.44 6.55 1.44L6.55 1.44L7.75 1.44Q8.04 1.44 8.25 1.48Q8.46 1.52 8.62 1.63Q8.78 1.73 8.90 1.92Q9.02 2.11 9.14 2.40L9.14 2.40L14.54 16.13L16.61 15.32L16.99 16.15Q16.70 16.42 16.25 16.79Q15.81 17.16 15.29 17.49Q14.77 17.82 14.21 18.06Q13.65 18.29 13.15 18.29L13.15 18.29Q12.82 18.29 12.56 18.14Q12.30 17.99 12.14 17.61L12.14 17.61ZM6.96 4.13L6.83 4.13Q6.32 5.32 5.83 6.40Q5.34 7.49 4.92 8.46Q4.49 9.43 4.15 10.31Q3.82 11.18 3.62 11.93L3.62 11.93L9.79 11.93L6.96 4.13ZM19.59 17.09L19.59 7.17L17.53 7.17L17.53 6.29Q17.78 6.19 18.22 6.09Q18.67 6 19.20 5.94Q19.73 5.88 20.29 5.85Q20.85 5.81 21.30 5.81L21.30 5.81Q21.55 5.81 21.74 5.82Q21.93 5.84 22.05 5.89Q22.18 5.95 22.25 6.08Q22.31 6.20 22.31 6.43L22.31 6.43L22.31 7.01Q22.49 6.95 22.96 6.73Q23.44 6.50 24.12 6.26Q24.80 6.02 25.61 5.83Q26.41 5.64 27.26 5.64L27.26 5.64Q28.28 5.64 28.91 5.92Q29.54 6.20 29.89 6.70Q30.25 7.20 30.37 7.88Q30.49 8.55 30.49 9.36L30.49 9.36L30.49 16.83L32.53 16.83L32.53 17.71Q32.33 17.81 31.99 17.91Q31.64 18 31.22 18.07Q30.80 18.14 30.34 18.18Q29.88 18.21 29.46 18.21L29.46 18.21Q29.10 18.21 28.79 18.17Q28.49 18.13 28.27 18.01Q28.04 17.88 27.91 17.67Q27.79 17.45 27.79 17.09L27.79 17.09L27.79 9.60Q27.79 9 27.72 8.58Q27.66 8.16 27.47 7.89Q27.29 7.62 26.97 7.49Q26.65 7.37 26.14 7.37L26.14 7.37Q25.82 7.37 25.42 7.42Q25.03 7.46 24.62 7.54Q24.20 7.62 23.81 7.70Q23.41 7.78 23.09 7.86Q22.77 7.93 22.56 7.99Q22.35 8.05 22.31 8.06L22.31 8.06L22.31 14.47Q22.31 15.20 22.35 15.75Q22.38 16.30 22.44 16.71Q22.49 17.12 22.55 17.40Q22.61 17.67 22.64 17.84L22.64 17.84Q22.48 17.93 22.27 17.99Q22.07 18.06 21.84 18.11Q21.61 18.16 21.38 18.19Q21.15 18.21 20.96 18.21L20.96 18.21Q20.66 18.21 20.41 18.16Q20.17 18.11 19.98 17.98Q19.79 17.85 19.69 17.63Q19.59 17.41 19.59 17.09L19.59 17.09ZM37.70 10.13L37.70 10.13Q37.70 11.70 38.38 12.58Q39.06 13.46 40.48 13.46L40.48 13.46Q41.89 13.46 42.58 12.58Q43.27 11.70 43.27 10.13L43.27 10.13Q43.27 8.55 42.59 7.69Q41.91 6.82 40.48 6.82L40.48 6.82Q39.06 6.82 38.38 7.69Q37.70 8.55 37.70 10.13ZM36.05 19.58L36.05 19.58Q36.48 20.24 36.99 20.75Q37.50 21.26 38.12 21.61Q38.74 21.96 39.49 22.14Q40.23 22.32 41.11 22.32L41.11 22.32Q41.57 22.32 42.15 22.25Q42.73 22.18 43.24 21.98Q43.76 21.79 44.11 21.43Q44.46 21.07 44.46 20.50L44.46 20.50Q44.46 20.04 44.07 19.77Q43.68 19.50 43.04 19.32Q42.40 19.15 41.58 19.04Q40.76 18.94 39.90 18.81Q39.05 18.68 38.23 18.49Q37.41 18.30 36.77 17.98Q36.13 17.66 35.74 17.16Q35.34 16.65 35.34 15.89L35.34 15.89Q35.34 15.42 35.52 15.10Q35.70 14.78 35.96 14.55Q36.23 14.33 36.55 14.17Q36.87 14.00 37.15 13.85L37.15 13.85Q36.12 13.27 35.53 12.32Q34.93 11.38 34.93 10.13L34.93 10.13Q34.93 9.08 35.36 8.25Q35.78 7.42 36.53 6.84Q37.28 6.26 38.29 5.95Q39.29 5.64 40.48 5.64L40.48 5.64Q41.96 5.64 43.17 6.13Q44.38 6.63 45.12 7.54L45.12 7.54L45.81 6.67Q46.20 6.20 46.51 5.90Q46.82 5.60 47.10 5.44Q47.38 5.27 47.65 5.21Q47.93 5.16 48.26 5.16L48.26 5.16Q48.41 5.16 48.60 5.20Q48.80 5.24 48.96 5.33Q49.13 5.43 49.24 5.57Q49.36 5.72 49.36 5.93L49.36 5.93L49.36 7.51Q48.55 7.51 47.99 7.52Q47.43 7.54 47.02 7.62Q46.61 7.71 46.28 7.90Q45.96 8.09 45.64 8.43L45.64 8.43Q45.82 8.82 45.92 9.23Q46.02 9.64 46.02 10.15L46.02 10.15Q46.02 11.19 45.60 12.02Q45.18 12.84 44.43 13.43Q43.69 14.02 42.67 14.33Q41.66 14.64 40.48 14.64L40.48 14.64Q39.84 14.64 39.28 14.55Q38.71 14.47 38.18 14.31L38.18 14.31Q37.73 14.54 37.48 14.81Q37.22 15.07 37.22 15.34L37.22 15.34Q37.22 15.81 37.63 16.06Q38.05 16.31 38.74 16.45Q39.42 16.59 40.30 16.66Q41.18 16.73 42.09 16.84Q43.00 16.95 43.88 17.12Q44.75 17.30 45.44 17.65Q46.13 18.01 46.54 18.59Q46.96 19.16 46.96 20.06L46.96 20.06Q46.96 21 46.43 21.70Q45.90 22.39 45.04 22.85Q44.17 23.31 43.05 23.54Q41.94 23.77 40.77 23.77L40.77 23.77Q39.95 23.77 39.12 23.66Q38.30 23.55 37.52 23.37Q36.75 23.18 36.08 22.92Q35.41 22.65 34.92 22.34Q34.43 22.03 34.14 21.68Q33.86 21.33 33.86 20.95L33.86 20.95Q33.86 20.78 33.98 20.63Q34.10 20.47 34.37 20.31Q34.63 20.16 35.04 19.97Q35.46 19.79 36.05 19.58ZM53.43 11.16L59.50 11.16Q59.57 10.92 59.59 10.69Q59.61 10.45 59.61 10.20L59.61 10.20Q59.61 9.62 59.42 9.04Q59.23 8.46 58.86 7.99Q58.49 7.52 57.94 7.23Q57.40 6.94 56.70 6.94L56.70 6.94Q55.79 6.94 55.19 7.28Q54.59 7.63 54.21 8.21Q53.82 8.79 53.65 9.56Q53.47 10.32 53.43 11.16L53.43 11.16ZM50.70 12L50.70 12Q50.70 10.61 51.15 9.44Q51.60 8.27 52.45 7.43Q53.30 6.59 54.53 6.11Q55.76 5.64 57.32 5.64L57.32 5.64Q58.49 5.64 59.41 6.01Q60.34 6.39 60.98 7.02Q61.63 7.65 61.97 8.48Q62.31 9.32 62.31 10.22L62.31 10.22Q62.31 10.64 62.24 11.06Q62.17 11.48 61.97 11.82Q61.77 12.16 61.41 12.38Q61.04 12.60 60.46 12.60L60.46 12.60L53.45 12.60Q53.57 13.65 54 14.46Q54.43 15.27 55.11 15.83Q55.79 16.38 56.68 16.66Q57.57 16.95 58.61 16.95L58.61 16.95Q59.31 16.95 60.06 16.82Q60.81 16.70 61.61 16.44L61.61 16.44L61.99 17.23Q61.51 17.55 60.96 17.79Q60.41 18.02 59.82 18.17Q59.24 18.32 58.63 18.39Q58.02 18.46 57.43 18.46L57.43 18.46Q56.14 18.46 54.93 18.05Q53.72 17.65 52.78 16.84Q51.83 16.03 51.26 14.82Q50.70 13.62 50.70 12ZM68.80 0.62L68.80 16.83L70.84 16.83L70.84 17.71Q70.64 17.81 70.29 17.91Q69.95 18 69.53 18.07Q69.11 18.14 68.65 18.18Q68.19 18.21 67.77 18.21L67.77 18.21Q67.41 18.21 67.10 18.17Q66.80 18.13 66.57 18.01Q66.35 17.88 66.22 17.67Q66.09 17.45 66.09 17.09L66.09 17.09L66.09 1.37L64.02 1.37L64.02 0.48Q64.27 0.38 64.72 0.28Q65.17 0.19 65.70 0.13Q66.22 0.07 66.78 0.04Q67.34 0 67.79 0L67.79 0Q68.04 0 68.23 0.01Q68.41 0.02 68.54 0.08Q68.67 0.14 68.74 0.26Q68.80 0.39 68.80 0.62L68.80 0.62ZM86.94 1.22L86.94 1.22Q88.32 1.22 89.47 1.46Q90.61 1.70 91.43 2.25Q92.25 2.80 92.70 3.70Q93.14 4.61 93.14 5.93L93.14 5.93Q93.14 6.22 93.08 6.59Q93.01 6.95 92.86 7.34Q92.71 7.72 92.47 8.09Q92.23 8.46 91.88 8.78Q91.52 9.09 91.05 9.32Q90.57 9.54 89.96 9.62L89.96 9.62Q90.96 9.73 91.65 10.05Q92.33 10.38 92.76 10.90Q93.19 11.41 93.38 12.08Q93.57 12.75 93.57 13.54L93.57 13.54Q93.57 14.93 93.03 15.84Q92.48 16.75 91.52 17.27Q90.56 17.80 89.27 18.01Q87.97 18.21 86.48 18.21L86.48 18.21Q85.29 18.21 84.25 18.16Q83.21 18.11 82.13 17.98L82.13 17.98Q81.60 17.92 81.40 17.70Q81.21 17.47 81.21 16.97L81.21 16.97L81.21 3.09L78.95 3.27L78.95 2.23Q79.49 2.00 80.36 1.82Q81.23 1.64 82.31 1.51Q83.38 1.37 84.57 1.30Q85.76 1.23 86.94 1.22ZM87.33 10.51L87.33 10.51Q86.96 10.49 86.63 10.49Q86.29 10.49 85.96 10.49L85.96 10.49Q85.55 10.49 85.20 10.49Q84.86 10.50 84.60 10.51L84.60 10.51Q84.29 10.52 84.05 10.54L84.05 10.54L84.05 16.32Q84.36 16.43 84.79 16.51L84.79 16.51Q85.15 16.58 85.66 16.64Q86.18 16.70 86.85 16.70L86.85 16.70Q88.09 16.70 88.86 16.42Q89.64 16.15 90.06 15.71Q90.49 15.28 90.64 14.75Q90.79 14.23 90.79 13.72L90.79 13.72Q90.79 13.03 90.60 12.46Q90.42 11.89 90.02 11.48Q89.61 11.06 88.95 10.82Q88.29 10.57 87.33 10.51ZM86.92 2.84L86.92 2.84Q86.31 2.84 85.78 2.85Q85.25 2.87 84.87 2.89Q84.48 2.92 84.26 2.94Q84.05 2.96 84.05 2.98L84.05 2.98L84.05 8.86Q84.61 8.96 85.06 9.01Q85.51 9.05 85.89 9.05L85.89 9.05Q87.15 9.05 88.02 8.79Q88.89 8.54 89.43 8.11Q89.96 7.68 90.21 7.10Q90.45 6.53 90.45 5.88L90.45 5.88Q90.45 5.18 90.25 4.62Q90.05 4.05 89.63 3.66Q89.20 3.27 88.54 3.06Q87.87 2.85 86.92 2.84ZM104.25 17.09L104.25 16.97Q104.25 16.97 104.09 17.07Q103.93 17.17 103.66 17.32Q103.38 17.47 103.01 17.65Q102.64 17.84 102.21 17.99Q101.77 18.15 101.29 18.26Q100.82 18.36 100.34 18.36L100.34 18.36Q99.57 18.36 98.88 18.16Q98.19 17.95 97.67 17.52Q97.15 17.09 96.84 16.43Q96.53 15.77 96.53 14.86L96.53 14.86Q96.53 13.85 96.98 13.15Q97.43 12.45 98.23 12.01Q99.04 11.57 100.15 11.37Q101.26 11.18 102.60 11.18L102.60 11.18L104.25 11.18L104.25 10.30Q104.25 9.62 104.20 8.99Q104.14 8.37 103.95 7.90Q103.76 7.43 103.39 7.15Q103.02 6.87 102.40 6.87L102.40 6.87Q101.80 6.87 101.20 7.08Q100.61 7.30 100.03 7.63Q99.46 7.96 98.93 8.35Q98.40 8.74 97.97 9.09L97.97 9.09L97.01 7.80Q96.83 7.59 96.83 7.37L96.83 7.37Q96.83 6.98 97.32 6.67Q97.80 6.35 98.54 6.12Q99.27 5.89 100.11 5.77Q100.96 5.64 101.68 5.64L101.68 5.64Q102.76 5.64 103.72 5.89Q104.68 6.15 105.40 6.71Q106.13 7.27 106.55 8.15Q106.97 9.04 106.97 10.30L106.97 10.30L106.97 16.83L109.01 16.83L109.01 17.71Q108.81 17.81 108.46 17.91Q108.12 18 107.70 18.07Q107.27 18.14 106.81 18.18Q106.35 18.21 105.93 18.21L105.93 18.21Q105.64 18.21 105.35 18.18Q105.06 18.14 104.82 18.02Q104.58 17.89 104.42 17.68Q104.26 17.46 104.25 17.09L104.25 17.09ZM101.16 16.63L101.16 16.63Q101.57 16.63 102.10 16.52Q102.63 16.41 103.11 16.28L103.11 16.28Q103.68 16.13 104.25 15.91L104.25 15.91L104.25 12.62L102.28 12.62Q101.84 12.62 101.30 12.70Q100.77 12.79 100.31 13.01Q99.84 13.24 99.53 13.65Q99.21 14.06 99.21 14.73L99.21 14.73Q99.21 15.15 99.34 15.50Q99.47 15.84 99.71 16.10Q99.96 16.35 100.32 16.49Q100.69 16.63 101.16 16.63ZM113.50 11.16L119.57 11.16Q119.64 10.92 119.66 10.69Q119.68 10.45 119.68 10.20L119.68 10.20Q119.68 9.62 119.49 9.04Q119.30 8.46 118.93 7.99Q118.56 7.52 118.01 7.23Q117.47 6.94 116.77 6.94L116.77 6.94Q115.86 6.94 115.26 7.28Q114.66 7.63 114.28 8.21Q113.89 8.79 113.72 9.56Q113.54 10.32 113.50 11.16L113.50 11.16ZM110.77 12L110.77 12Q110.77 10.61 111.22 9.44Q111.67 8.27 112.52 7.43Q113.37 6.59 114.60 6.11Q115.83 5.64 117.39 5.64L117.39 5.64Q118.56 5.64 119.48 6.01Q120.41 6.39 121.05 7.02Q121.70 7.65 122.04 8.48Q122.38 9.32 122.38 10.22L122.38 10.22Q122.38 10.64 122.31 11.06Q122.24 11.48 122.04 11.82Q121.84 12.16 121.48 12.38Q121.11 12.60 120.53 12.60L120.53 12.60L113.52 12.60Q113.64 13.65 114.07 14.46Q114.50 15.27 115.18 15.83Q115.86 16.38 116.75 16.66Q117.64 16.95 118.68 16.95L118.68 16.95Q119.38 16.95 120.13 16.82Q120.88 16.70 121.68 16.44L121.68 16.44L122.06 17.23Q121.58 17.55 121.03 17.79Q120.48 18.02 119.89 18.17Q119.31 18.32 118.70 18.39Q118.09 18.46 117.50 18.46L117.50 18.46Q116.21 18.46 115.00 18.05Q113.79 17.65 112.85 16.84Q111.90 16.03 111.33 14.82Q110.77 13.62 110.77 12ZM127.70 16.58L130.05 16.58Q131.05 16.58 131.99 16.49Q132.94 16.39 133.69 16.28L133.69 16.28Q134.57 16.15 135.35 15.96L135.35 15.96L135.55 17.23L135.55 17.36Q135.55 17.58 135.44 17.72Q135.33 17.87 135.15 17.95Q134.98 18.04 134.78 18.06Q134.58 18.09 134.40 18.09L134.40 18.09L125.93 18Q125.47 18 125.23 17.77Q124.99 17.54 124.99 17.04L124.99 17.04L124.99 16.42L132.35 7.30Q130.88 7.34 129.84 7.41Q128.81 7.49 128.11 7.58Q127.41 7.68 126.98 7.78Q126.56 7.89 126.30 7.97Q126.04 8.05 125.88 8.10Q125.72 8.16 125.54 8.16L125.54 8.16L125.23 6.77Q125.20 6.71 125.20 6.67Q125.20 6.63 125.20 6.60L125.20 6.60Q125.20 5.91 126.26 5.91L126.26 5.91Q126.70 5.91 127.28 5.91Q127.85 5.92 128.48 5.92Q129.12 5.93 129.79 5.94Q130.45 5.94 131.07 5.95L131.07 5.95Q132.54 5.98 134.11 6L134.11 6Q134.60 6.02 134.86 6.24Q135.12 6.46 135.12 6.96L135.12 6.96L135.12 7.56L127.70 16.58Z" transform="translate(50.432, 5.5)"></path></svg>